<svg width="1200" height="700" viewBox="0 0 1200 700" fill="none" xmlns="http://www.w3.org/2000/svg">
  <defs>
    <linearGradient id="bg" x1="0" y1="0" x2="1200" y2="700" gradientUnits="userSpaceOnUse">
      <stop stop-color="#FFF7ED"/>
      <stop offset="0.55" stop-color="#FFEDD5"/>
      <stop offset="1" stop-color="#FEF3C7"/>
    </linearGradient>
    <radialGradient id="g1" cx="0" cy="0" r="1" gradientUnits="userSpaceOnUse" gradientTransform="translate(270 180) rotate(42) scale(420 320)">
      <stop stop-color="#FB923C" stop-opacity="0.35"/>
      <stop offset="1" stop-color="#FB923C" stop-opacity="0"/>
    </radialGradient>
    <radialGradient id="g2" cx="0" cy="0" r="1" gradientUnits="userSpaceOnUse" gradientTransform="translate(900 140) rotate(20) scale(520 360)">
      <stop stop-color="#0F172A" stop-opacity="0.18"/>
      <stop offset="1" stop-color="#0F172A" stop-opacity="0"/>
    </radialGradient>
    <filter id="soft" x="-20%" y="-20%" width="140%" height="140%">
      <feGaussianBlur stdDeviation="18" />
    </filter>
  </defs>

  <rect width="1200" height="700" rx="56" fill="url(#bg)"/>
  <circle cx="270" cy="180" r="210" fill="url(#g1)" filter="url(#soft)"/>
  <circle cx="920" cy="150" r="260" fill="url(#g2)" filter="url(#soft)"/>
  <circle cx="760" cy="560" r="240" fill="url(#g1)" filter="url(#soft)"/>

  <g opacity="0.9">
    <rect x="110" y="110" width="980" height="480" rx="36" fill="white" fill-opacity="0.6" stroke="#0F172A" stroke-opacity="0.08"/>
    <rect x="160" y="160" width="420" height="28" rx="14" fill="#0F172A" fill-opacity="0.08"/>
    <rect x="160" y="208" width="560" height="18" rx="9" fill="#0F172A" fill-opacity="0.06"/>
    <rect x="160" y="238" width="520" height="18" rx="9" fill="#0F172A" fill-opacity="0.05"/>
    <rect x="160" y="310" width="200" height="40" rx="20" fill="#FB923C" fill-opacity="0.18"/>
    <rect x="372" y="310" width="200" height="40" rx="20" fill="#0F172A" fill-opacity="0.08"/>
  </g>

  <g>
    <path d="M560 420 L520 450 L560 480" stroke="#FB923C" stroke-width="10" stroke-linecap="round" stroke-linejoin="round"/>
    <path d="M640 420 L680 450 L640 480" stroke="#FB923C" stroke-width="10" stroke-linecap="round" stroke-linejoin="round"/>
    <path d="M590 492 L610 408" stroke="#0F172A" stroke-opacity="0.35" stroke-width="10" stroke-linecap="round"/>
  </g>
</svg>

